<mxfile host="Electron" agent="Mozilla/5.0 (Windows NT 10.0; Win64; x64) AppleWebKit/537.36 (KHTML, like Gecko) draw.io/26.0.16 Chrome/132.0.6834.196 Electron/34.2.0 Safari/537.36" version="26.0.16">
  <diagram id="6a731a19-8d31-9384-78a2-239565b7b9f0" name="Page-1">
    <mxGraphModel dx="1122" dy="540" grid="1" gridSize="10" guides="1" tooltips="1" connect="1" arrows="1" fold="1" page="1" pageScale="1" pageWidth="827" pageHeight="1169" background="none" math="0" shadow="0">
      <root>
        <mxCell id="0" />
        <mxCell id="1" parent="0" />
        <mxCell id="W0F5wkWzgOwJv0d3HdWe-49" value="" style="edgeStyle=orthogonalEdgeStyle;rounded=0;orthogonalLoop=1;jettySize=auto;html=1;entryX=0.523;entryY=1.027;entryDx=0;entryDy=0;entryPerimeter=0;" parent="1" edge="1" target="W0F5wkWzgOwJv0d3HdWe-18">
          <mxGeometry relative="1" as="geometry">
            <mxPoint x="226.0588235294117" y="1019" as="sourcePoint" />
            <mxPoint x="226" y="919" as="targetPoint" />
            <Array as="points">
              <mxPoint x="226" y="990" />
            </Array>
          </mxGeometry>
        </mxCell>
        <mxCell id="i-rJRUsxZluSv3IriuRb-110" value="Power off the Robot" style="rounded=0;whiteSpace=wrap;html=1;" parent="1" vertex="1">
          <mxGeometry x="110" y="1019" width="220" height="30" as="geometry" />
        </mxCell>
        <mxCell id="UTgiHZRZ-wIxoRLCGmFI-5" value="Yes" style="text;html=1;align=center;verticalAlign=middle;resizable=0;points=[];autosize=1;strokeColor=none;fillColor=none;" parent="1" vertex="1">
          <mxGeometry x="420" y="210" width="40" height="30" as="geometry" />
        </mxCell>
        <mxCell id="W0F5wkWzgOwJv0d3HdWe-40" value="" style="edgeStyle=orthogonalEdgeStyle;rounded=0;orthogonalLoop=1;jettySize=auto;html=1;" parent="1" source="2RlvgQEj2Rbj9FGRti8N-82" target="W0F5wkWzgOwJv0d3HdWe-35" edge="1">
          <mxGeometry relative="1" as="geometry">
            <mxPoint x="456.8800000000001" y="239.5" as="sourcePoint" />
          </mxGeometry>
        </mxCell>
        <mxCell id="W0F5wkWzgOwJv0d3HdWe-18" value="End" style="ellipse;whiteSpace=wrap;html=1;" parent="1" vertex="1">
          <mxGeometry x="100" y="920" width="240" height="40" as="geometry" />
        </mxCell>
        <mxCell id="W0F5wkWzgOwJv0d3HdWe-65" style="edgeStyle=orthogonalEdgeStyle;rounded=0;orthogonalLoop=1;jettySize=auto;html=1;entryX=0;entryY=0.75;entryDx=0;entryDy=0;exitX=0;exitY=0.5;exitDx=0;exitDy=0;" parent="1" source="2RlvgQEj2Rbj9FGRti8N-3" target="i-rJRUsxZluSv3IriuRb-110" edge="1">
          <mxGeometry relative="1" as="geometry">
            <Array as="points">
              <mxPoint x="180" y="790" />
              <mxPoint x="30" y="790" />
              <mxPoint x="30" y="1042" />
            </Array>
            <mxPoint x="160" y="476" as="sourcePoint" />
          </mxGeometry>
        </mxCell>
        <mxCell id="W0F5wkWzgOwJv0d3HdWe-50" value="" style="edgeStyle=orthogonalEdgeStyle;rounded=0;orthogonalLoop=1;jettySize=auto;html=1;" parent="1" source="W0F5wkWzgOwJv0d3HdWe-35" target="W0F5wkWzgOwJv0d3HdWe-37" edge="1">
          <mxGeometry relative="1" as="geometry" />
        </mxCell>
        <mxCell id="W0F5wkWzgOwJv0d3HdWe-35" value="Toggle to Manual mode" style="rounded=0;whiteSpace=wrap;html=1;" parent="1" vertex="1">
          <mxGeometry x="160" y="210" width="150" height="59" as="geometry" />
        </mxCell>
        <mxCell id="W0F5wkWzgOwJv0d3HdWe-39" value="" style="edgeStyle=orthogonalEdgeStyle;rounded=0;orthogonalLoop=1;jettySize=auto;html=1;" parent="1" source="W0F5wkWzgOwJv0d3HdWe-37" edge="1">
          <mxGeometry relative="1" as="geometry">
            <mxPoint x="235" y="456" as="targetPoint" />
          </mxGeometry>
        </mxCell>
        <mxCell id="2RlvgQEj2Rbj9FGRti8N-108" style="edgeStyle=orthogonalEdgeStyle;rounded=0;orthogonalLoop=1;jettySize=auto;html=1;exitX=1;exitY=0.5;exitDx=0;exitDy=0;entryX=0;entryY=0.5;entryDx=0;entryDy=0;" edge="1" parent="1" source="W0F5wkWzgOwJv0d3HdWe-37" target="2RlvgQEj2Rbj9FGRti8N-107">
          <mxGeometry relative="1" as="geometry" />
        </mxCell>
        <mxCell id="W0F5wkWzgOwJv0d3HdWe-37" value="&lt;div&gt;Perform actions&lt;/div&gt;&lt;div&gt;&amp;nbsp;provided by the&amp;nbsp;&lt;div&gt;user-move forward, backwards, left, right&lt;/div&gt;&lt;/div&gt;" style="rounded=0;whiteSpace=wrap;html=1;" parent="1" vertex="1">
          <mxGeometry x="160" y="329" width="150" height="71" as="geometry" />
        </mxCell>
        <mxCell id="W0F5wkWzgOwJv0d3HdWe-48" value="" style="edgeStyle=orthogonalEdgeStyle;rounded=0;orthogonalLoop=1;jettySize=auto;html=1;" parent="1" target="i-rJRUsxZluSv3IriuRb-110" edge="1">
          <mxGeometry relative="1" as="geometry">
            <Array as="points">
              <mxPoint x="230" y="1060" />
              <mxPoint x="230" y="1060" />
            </Array>
            <mxPoint x="410" y="1340" as="sourcePoint" />
          </mxGeometry>
        </mxCell>
        <mxCell id="2RlvgQEj2Rbj9FGRti8N-142" style="edgeStyle=orthogonalEdgeStyle;rounded=0;orthogonalLoop=1;jettySize=auto;html=1;entryX=0;entryY=0.5;entryDx=0;entryDy=0;" edge="1" parent="1" source="2RlvgQEj2Rbj9FGRti8N-2" target="W0F5wkWzgOwJv0d3HdWe-35">
          <mxGeometry relative="1" as="geometry">
            <mxPoint x="70" y="250" as="targetPoint" />
            <Array as="points">
              <mxPoint x="70" y="506" />
              <mxPoint x="70" y="240" />
            </Array>
          </mxGeometry>
        </mxCell>
        <mxCell id="2RlvgQEj2Rbj9FGRti8N-2" value="&lt;div&gt;&lt;font style=&quot;font-size: 11px;&quot;&gt;If user&lt;/font&gt;&lt;/div&gt;&lt;div&gt;&lt;font style=&quot;font-size: 11px;&quot;&gt;&amp;nbsp;selects&amp;nbsp;&lt;/font&gt;&lt;/div&gt;&lt;div&gt;&lt;font style=&quot;font-size: 11px;&quot;&gt;user follow&amp;nbsp;&lt;/font&gt;&lt;/div&gt;&lt;div&gt;&lt;font style=&quot;font-size: 11px;&quot;&gt;mode&amp;nbsp;&lt;/font&gt;&lt;span style=&quot;background-color: transparent; color: light-dark(rgb(0, 0, 0), rgb(255, 255, 255)); font-size: 11px;&quot;&gt;&amp;nbsp;&lt;/span&gt;&lt;/div&gt;" style="rhombus;whiteSpace=wrap;html=1;" vertex="1" parent="1">
          <mxGeometry x="173.12" y="456" width="123.75" height="99" as="geometry" />
        </mxCell>
        <mxCell id="2RlvgQEj2Rbj9FGRti8N-3" value="Follows the user,&amp;nbsp;&lt;span style=&quot;background-color: transparent; color: light-dark(rgb(0, 0, 0), rgb(255, 255, 255));&quot;&gt;detect smoke&amp;nbsp;&lt;/span&gt;&lt;span style=&quot;background-color: transparent; color: light-dark(rgb(0, 0, 0), rgb(255, 255, 255));&quot;&gt;and make a sound,&amp;nbsp;&lt;/span&gt;&lt;span style=&quot;background-color: transparent; color: light-dark(rgb(0, 0, 0), rgb(255, 255, 255)); text-indent: -0.25in;&quot;&gt;LED bulb&lt;/span&gt;&lt;div&gt;&lt;span style=&quot;text-indent: -0.25in; background-color: transparent; color: light-dark(rgb(0, 0, 0), rgb(255, 255, 255));&quot;&gt;lights up corresponding to background&amp;nbsp;&lt;/span&gt;&lt;/div&gt;&lt;div&gt;&lt;span style=&quot;text-indent: -0.25in; background-color: transparent; color: light-dark(rgb(0, 0, 0), rgb(255, 255, 255));&quot;&gt;darkness automatically&lt;/span&gt;&lt;/div&gt;" style="rounded=0;whiteSpace=wrap;html=1;" vertex="1" parent="1">
          <mxGeometry x="179" y="728" width="150" height="110" as="geometry" />
        </mxCell>
        <mxCell id="2RlvgQEj2Rbj9FGRti8N-5" value="" style="edgeStyle=orthogonalEdgeStyle;rounded=0;orthogonalLoop=1;jettySize=auto;html=1;" edge="1" parent="1">
          <mxGeometry relative="1" as="geometry">
            <mxPoint x="235" y="554" as="sourcePoint" />
            <mxPoint x="235" y="600" as="targetPoint" />
          </mxGeometry>
        </mxCell>
        <mxCell id="2RlvgQEj2Rbj9FGRti8N-8" value="Yes" style="text;html=1;align=center;verticalAlign=middle;resizable=0;points=[];autosize=1;strokeColor=none;fillColor=none;" vertex="1" parent="1">
          <mxGeometry x="240" y="555" width="40" height="30" as="geometry" />
        </mxCell>
        <mxCell id="2RlvgQEj2Rbj9FGRti8N-72" value="" style="edgeStyle=orthogonalEdgeStyle;rounded=0;orthogonalLoop=1;jettySize=auto;html=1;" edge="1" parent="1" source="2RlvgQEj2Rbj9FGRti8N-73" target="2RlvgQEj2Rbj9FGRti8N-75">
          <mxGeometry relative="1" as="geometry" />
        </mxCell>
        <mxCell id="2RlvgQEj2Rbj9FGRti8N-73" value="Start" style="ellipse;whiteSpace=wrap;html=1;" vertex="1" parent="1">
          <mxGeometry x="400" y="35" width="240" height="40" as="geometry" />
        </mxCell>
        <mxCell id="2RlvgQEj2Rbj9FGRti8N-74" value="" style="edgeStyle=orthogonalEdgeStyle;rounded=0;orthogonalLoop=1;jettySize=auto;html=1;" edge="1" parent="1" source="2RlvgQEj2Rbj9FGRti8N-75">
          <mxGeometry relative="1" as="geometry">
            <mxPoint x="520" y="189" as="targetPoint" />
          </mxGeometry>
        </mxCell>
        <mxCell id="2RlvgQEj2Rbj9FGRti8N-75" value="Power on the robot" style="rounded=0;whiteSpace=wrap;html=1;" vertex="1" parent="1">
          <mxGeometry x="390" y="101" width="260" height="40" as="geometry" />
        </mxCell>
        <mxCell id="2RlvgQEj2Rbj9FGRti8N-106" style="edgeStyle=orthogonalEdgeStyle;rounded=0;orthogonalLoop=1;jettySize=auto;html=1;entryX=0;entryY=0.5;entryDx=0;entryDy=0;" edge="1" parent="1" source="2RlvgQEj2Rbj9FGRti8N-82" target="2RlvgQEj2Rbj9FGRti8N-104">
          <mxGeometry relative="1" as="geometry" />
        </mxCell>
        <mxCell id="2RlvgQEj2Rbj9FGRti8N-82" value="&lt;span style=&quot;font-size: 11px;&quot;&gt;If&amp;nbsp;&lt;/span&gt;&lt;div&gt;&lt;span style=&quot;font-size: 11px;&quot;&gt;Bluetooth&amp;nbsp;&lt;/span&gt;&lt;span style=&quot;font-size: 11px; background-color: transparent; color: light-dark(rgb(0, 0, 0), rgb(255, 255, 255));&quot;&gt;connection&lt;/span&gt;&lt;/div&gt;&lt;div&gt;&lt;span style=&quot;font-size: 11px;&quot;&gt;&amp;nbsp;is successful&lt;/span&gt;&lt;/div&gt;" style="rhombus;whiteSpace=wrap;html=1;" vertex="1" parent="1">
          <mxGeometry x="458.13" y="190" width="123.75" height="99" as="geometry" />
        </mxCell>
        <mxCell id="2RlvgQEj2Rbj9FGRti8N-87" value="No" style="text;html=1;align=center;verticalAlign=middle;resizable=0;points=[];autosize=1;strokeColor=none;fillColor=none;" vertex="1" parent="1">
          <mxGeometry x="580" y="210" width="40" height="30" as="geometry" />
        </mxCell>
        <mxCell id="2RlvgQEj2Rbj9FGRti8N-102" value="Perform actions provided by the&amp;nbsp;&lt;div&gt;user-move, detect smoke&amp;nbsp;&lt;/div&gt;&lt;div&gt;and make a sound,&amp;nbsp;&lt;span style=&quot;background-color: transparent; color: light-dark(rgb(0, 0, 0), rgb(255, 255, 255)); text-indent: -0.25in;&quot;&gt;LED bulb&lt;/span&gt;&lt;/div&gt;&lt;div&gt;&lt;span style=&quot;text-indent: -0.25in; background-color: transparent; color: light-dark(rgb(0, 0, 0), rgb(255, 255, 255));&quot;&gt;lights up corresponding to background&amp;nbsp;&lt;/span&gt;&lt;/div&gt;&lt;div&gt;&lt;span style=&quot;text-indent: -0.25in; background-color: transparent; color: light-dark(rgb(0, 0, 0), rgb(255, 255, 255));&quot;&gt;darkness automatically, avoid obstacles&lt;/span&gt;&lt;/div&gt;&lt;p style=&quot;text-indent:-.25in;line-height:150%;&lt;br/&gt;mso-list:l0 level1 lfo1&quot; class=&quot;MsoListParagraph&quot;&gt;&lt;span lang=&quot;EN-GB&quot;&gt;&lt;/span&gt;&lt;/p&gt;" style="rounded=0;whiteSpace=wrap;html=1;" vertex="1" parent="1">
          <mxGeometry x="421.25" y="555" width="260" height="105" as="geometry" />
        </mxCell>
        <mxCell id="2RlvgQEj2Rbj9FGRti8N-104" value="Emits a sound" style="rounded=0;whiteSpace=wrap;html=1;" vertex="1" parent="1">
          <mxGeometry x="652.13" y="210" width="150" height="59" as="geometry" />
        </mxCell>
        <mxCell id="2RlvgQEj2Rbj9FGRti8N-107" value="&lt;div&gt;&lt;font style=&quot;font-size: 11px;&quot;&gt;If user&lt;/font&gt;&lt;/div&gt;&lt;div&gt;&lt;font style=&quot;font-size: 11px;&quot;&gt;&amp;nbsp;selects&amp;nbsp;&lt;/font&gt;&lt;font style=&quot;background-color: transparent; color: light-dark(rgb(0, 0, 0), rgb(255, 255, 255)); font-size: 11px;&quot;&gt;obstacle&amp;nbsp;&lt;/font&gt;&lt;/div&gt;&lt;div&gt;&lt;span style=&quot;background-color: transparent; color: light-dark(rgb(0, 0, 0), rgb(255, 255, 255)); font-size: 11px;&quot;&gt;avoiding&amp;nbsp;&lt;/span&gt;&lt;/div&gt;&lt;div&gt;&lt;font style=&quot;font-size: 11px;&quot;&gt;mode&amp;nbsp;&lt;/font&gt;&lt;span style=&quot;background-color: transparent; color: light-dark(rgb(0, 0, 0), rgb(255, 255, 255)); font-size: 11px;&quot;&gt;&amp;nbsp;&lt;/span&gt;&lt;/div&gt;" style="rhombus;whiteSpace=wrap;html=1;" vertex="1" parent="1">
          <mxGeometry x="460" y="315" width="123.75" height="99" as="geometry" />
        </mxCell>
        <mxCell id="2RlvgQEj2Rbj9FGRti8N-109" value="" style="edgeStyle=orthogonalEdgeStyle;rounded=0;orthogonalLoop=1;jettySize=auto;html=1;" edge="1" parent="1">
          <mxGeometry relative="1" as="geometry">
            <mxPoint x="521.52" y="414" as="sourcePoint" />
            <mxPoint x="521.52" y="460" as="targetPoint" />
          </mxGeometry>
        </mxCell>
        <mxCell id="2RlvgQEj2Rbj9FGRti8N-110" value="Yes" style="text;html=1;align=center;verticalAlign=middle;resizable=0;points=[];autosize=1;strokeColor=none;fillColor=none;" vertex="1" parent="1">
          <mxGeometry x="522.52" y="415" width="40" height="30" as="geometry" />
        </mxCell>
        <mxCell id="2RlvgQEj2Rbj9FGRti8N-111" value="Stops and tilt the head&amp;nbsp;&lt;div&gt;both sides&lt;/div&gt;" style="rounded=0;whiteSpace=wrap;html=1;" vertex="1" parent="1">
          <mxGeometry x="446.87" y="460" width="150" height="59" as="geometry" />
        </mxCell>
        <mxCell id="2RlvgQEj2Rbj9FGRti8N-113" value="Stops and tilt the head&amp;nbsp;&lt;div&gt;both sides&lt;/div&gt;" style="rounded=0;whiteSpace=wrap;html=1;" vertex="1" parent="1">
          <mxGeometry x="179" y="601" width="150" height="59" as="geometry" />
        </mxCell>
        <mxCell id="2RlvgQEj2Rbj9FGRti8N-115" value="" style="edgeStyle=orthogonalEdgeStyle;rounded=0;orthogonalLoop=1;jettySize=auto;html=1;entryX=0.411;entryY=0.005;entryDx=0;entryDy=0;entryPerimeter=0;" edge="1" parent="1" target="2RlvgQEj2Rbj9FGRti8N-3">
          <mxGeometry relative="1" as="geometry">
            <mxPoint x="240" y="660" as="sourcePoint" />
            <mxPoint x="240" y="706" as="targetPoint" />
          </mxGeometry>
        </mxCell>
        <mxCell id="2RlvgQEj2Rbj9FGRti8N-116" value="" style="edgeStyle=orthogonalEdgeStyle;rounded=0;orthogonalLoop=1;jettySize=auto;html=1;entryX=0.399;entryY=-0.001;entryDx=0;entryDy=0;entryPerimeter=0;" edge="1" parent="1">
          <mxGeometry relative="1" as="geometry">
            <mxPoint x="519.52" y="519" as="sourcePoint" />
            <mxPoint x="521.99" y="554.876" as="targetPoint" />
          </mxGeometry>
        </mxCell>
        <mxCell id="2RlvgQEj2Rbj9FGRti8N-118" value="Wags tail when touch sensor is pressed" style="rounded=0;whiteSpace=wrap;html=1;" vertex="1" parent="1">
          <mxGeometry x="159.99" y="91" width="150" height="59" as="geometry" />
        </mxCell>
        <mxCell id="2RlvgQEj2Rbj9FGRti8N-119" value="" style="edgeStyle=orthogonalEdgeStyle;rounded=0;orthogonalLoop=1;jettySize=auto;html=1;exitX=0;exitY=0.5;exitDx=0;exitDy=0;" edge="1" parent="1" source="2RlvgQEj2Rbj9FGRti8N-75">
          <mxGeometry relative="1" as="geometry">
            <mxPoint x="457.99" y="120.5" as="sourcePoint" />
            <mxPoint x="309.99" y="120.5" as="targetPoint" />
          </mxGeometry>
        </mxCell>
        <mxCell id="2RlvgQEj2Rbj9FGRti8N-120" value="" style="edgeStyle=orthogonalEdgeStyle;rounded=0;orthogonalLoop=1;jettySize=auto;html=1;" edge="1" parent="1">
          <mxGeometry relative="1" as="geometry">
            <mxPoint x="539" y="854" as="targetPoint" />
            <mxPoint x="539.0833333333335" y="809.9373333333333" as="sourcePoint" />
          </mxGeometry>
        </mxCell>
        <mxCell id="2RlvgQEj2Rbj9FGRti8N-121" value="&lt;font style=&quot;font-size: 11px;&quot;&gt;If&lt;/font&gt;&lt;div&gt;&lt;font style=&quot;font-size: 11px;&quot;&gt;obstacle&amp;nbsp;&lt;/font&gt;&lt;span style=&quot;font-size: 11px; background-color: transparent; color: light-dark(rgb(0, 0, 0), rgb(255, 255, 255));&quot;&gt;is&amp;nbsp;&lt;/span&gt;&lt;/div&gt;&lt;div&gt;&lt;span style=&quot;font-size: 11px; background-color: transparent; color: light-dark(rgb(0, 0, 0), rgb(255, 255, 255));&quot;&gt;detected&amp;nbsp;&lt;/span&gt;&lt;/div&gt;" style="rhombus;whiteSpace=wrap;html=1;" vertex="1" parent="1">
          <mxGeometry x="477.13" y="710" width="123.75" height="99" as="geometry" />
        </mxCell>
        <mxCell id="2RlvgQEj2Rbj9FGRti8N-122" value="" style="edgeStyle=orthogonalEdgeStyle;rounded=0;orthogonalLoop=1;jettySize=auto;html=1;" edge="1" parent="1" source="2RlvgQEj2Rbj9FGRti8N-123" target="2RlvgQEj2Rbj9FGRti8N-133">
          <mxGeometry relative="1" as="geometry" />
        </mxCell>
        <mxCell id="2RlvgQEj2Rbj9FGRti8N-123" value="Avoids the obstacle and maintains&amp;nbsp;&lt;div&gt;a certain distance from it&lt;/div&gt;" style="rounded=0;whiteSpace=wrap;html=1;" vertex="1" parent="1">
          <mxGeometry x="410" y="854" width="260" height="49" as="geometry" />
        </mxCell>
        <mxCell id="2RlvgQEj2Rbj9FGRti8N-124" value="&amp;nbsp;Mainatins a certain&amp;nbsp;&lt;span style=&quot;color: light-dark(rgb(0, 0, 0), rgb(255, 255, 255)); background-color: transparent;&quot;&gt;distance and travel&lt;/span&gt;" style="rounded=0;whiteSpace=wrap;html=1;" vertex="1" parent="1">
          <mxGeometry x="410.02" y="1318" width="260" height="30" as="geometry" />
        </mxCell>
        <mxCell id="2RlvgQEj2Rbj9FGRti8N-126" value="Yes" style="text;html=1;align=center;verticalAlign=middle;resizable=0;points=[];autosize=1;strokeColor=none;fillColor=none;" vertex="1" parent="1">
          <mxGeometry x="540.25" y="808" width="40" height="30" as="geometry" />
        </mxCell>
        <mxCell id="2RlvgQEj2Rbj9FGRti8N-127" value="" style="edgeStyle=orthogonalEdgeStyle;rounded=0;orthogonalLoop=1;jettySize=auto;html=1;" edge="1" parent="1" source="2RlvgQEj2Rbj9FGRti8N-128">
          <mxGeometry relative="1" as="geometry">
            <mxPoint x="681.8899999999999" y="1122.5" as="targetPoint" />
          </mxGeometry>
        </mxCell>
        <mxCell id="2RlvgQEj2Rbj9FGRti8N-128" value="&lt;div&gt;&lt;span style=&quot;font-size: 11px;&quot;&gt;If an&amp;nbsp;&lt;/span&gt;&lt;/div&gt;&lt;div&gt;&lt;span style=&quot;font-size: 11px;&quot;&gt;obstacle detected&lt;/span&gt;&lt;/div&gt;&lt;div&gt;&lt;span style=&quot;font-size: 11px;&quot;&gt;&amp;nbsp;&lt;/span&gt;&lt;span style=&quot;font-size: 11px; background-color: transparent; color: light-dark(rgb(0, 0, 0), rgb(255, 255, 255));&quot;&gt;only&amp;nbsp;&lt;/span&gt;&lt;span style=&quot;background-color: transparent; color: light-dark(rgb(0, 0, 0), rgb(255, 255, 255)); font-size: 11px;&quot;&gt;in one&amp;nbsp;&lt;/span&gt;&lt;/div&gt;&lt;div&gt;&lt;span style=&quot;background-color: transparent; color: light-dark(rgb(0, 0, 0), rgb(255, 255, 255)); font-size: 11px;&quot;&gt;direction&amp;nbsp;&lt;/span&gt;&lt;/div&gt;" style="rhombus;whiteSpace=wrap;html=1;" vertex="1" parent="1">
          <mxGeometry x="478.14" y="1073" width="123.75" height="99" as="geometry" />
        </mxCell>
        <mxCell id="2RlvgQEj2Rbj9FGRti8N-129" value="Turns to opposite direction" style="rounded=0;whiteSpace=wrap;html=1;" vertex="1" parent="1">
          <mxGeometry x="410.02" y="1233" width="211.23" height="30" as="geometry" />
        </mxCell>
        <mxCell id="2RlvgQEj2Rbj9FGRti8N-130" value="" style="endArrow=classic;html=1;rounded=0;entryX=0.615;entryY=0.007;entryDx=0;entryDy=0;exitX=0.5;exitY=1;exitDx=0;exitDy=0;entryPerimeter=0;" edge="1" parent="1" source="2RlvgQEj2Rbj9FGRti8N-128" target="2RlvgQEj2Rbj9FGRti8N-129">
          <mxGeometry width="50" height="50" relative="1" as="geometry">
            <mxPoint x="601.26" y="1243" as="sourcePoint" />
            <mxPoint x="651.26" y="1193" as="targetPoint" />
          </mxGeometry>
        </mxCell>
        <mxCell id="2RlvgQEj2Rbj9FGRti8N-131" value="Yes" style="text;html=1;align=center;verticalAlign=middle;resizable=0;points=[];autosize=1;strokeColor=none;fillColor=none;" vertex="1" parent="1">
          <mxGeometry x="540.25" y="1183" width="40" height="30" as="geometry" />
        </mxCell>
        <mxCell id="2RlvgQEj2Rbj9FGRti8N-132" value="" style="edgeStyle=orthogonalEdgeStyle;rounded=0;orthogonalLoop=1;jettySize=auto;html=1;" edge="1" parent="1" source="2RlvgQEj2Rbj9FGRti8N-133" target="2RlvgQEj2Rbj9FGRti8N-128">
          <mxGeometry relative="1" as="geometry" />
        </mxCell>
        <mxCell id="2RlvgQEj2Rbj9FGRti8N-133" value="Turn the head&amp;nbsp;&lt;div&gt;both sides and searches for an obstacle&lt;/div&gt;" style="rounded=0;whiteSpace=wrap;html=1;" vertex="1" parent="1">
          <mxGeometry x="410.01" y="963" width="260" height="50" as="geometry" />
        </mxCell>
        <mxCell id="2RlvgQEj2Rbj9FGRti8N-134" value="No" style="text;html=1;align=center;verticalAlign=middle;resizable=0;points=[];autosize=1;strokeColor=none;fillColor=none;" vertex="1" parent="1">
          <mxGeometry x="620" y="1093" width="40" height="30" as="geometry" />
        </mxCell>
        <mxCell id="2RlvgQEj2Rbj9FGRti8N-135" value="&lt;div&gt;&lt;span style=&quot;font-size: 11px;&quot;&gt;If an&amp;nbsp;&lt;/span&gt;&lt;/div&gt;&lt;div&gt;&lt;span style=&quot;font-size: 11px;&quot;&gt;obstacle found&amp;nbsp;&lt;/span&gt;&lt;/div&gt;&lt;div&gt;&lt;span style=&quot;font-size: 11px; background-color: transparent; color: light-dark(rgb(0, 0, 0), rgb(255, 255, 255));&quot;&gt;in both&lt;/span&gt;&lt;/div&gt;&lt;div&gt;&lt;span style=&quot;font-size: 11px; background-color: transparent; color: light-dark(rgb(0, 0, 0), rgb(255, 255, 255));&quot;&gt;direction&amp;nbsp;&lt;/span&gt;&lt;/div&gt;" style="rhombus;whiteSpace=wrap;html=1;" vertex="1" parent="1">
          <mxGeometry x="678.25" y="1073" width="123.75" height="99" as="geometry" />
        </mxCell>
        <mxCell id="2RlvgQEj2Rbj9FGRti8N-136" style="edgeStyle=orthogonalEdgeStyle;rounded=0;orthogonalLoop=1;jettySize=auto;html=1;entryX=1;entryY=0.5;entryDx=0;entryDy=0;" edge="1" parent="1" source="2RlvgQEj2Rbj9FGRti8N-137" target="2RlvgQEj2Rbj9FGRti8N-124">
          <mxGeometry relative="1" as="geometry">
            <Array as="points">
              <mxPoint x="741.25" y="1333" />
            </Array>
          </mxGeometry>
        </mxCell>
        <mxCell id="2RlvgQEj2Rbj9FGRti8N-137" value="&lt;font style=&quot;font-size: 12px;&quot;&gt;Checks the obstacle with highest gap and turns&lt;/font&gt;" style="rounded=0;whiteSpace=wrap;html=1;" vertex="1" parent="1">
          <mxGeometry x="681.25" y="1233" width="138.75" height="51" as="geometry" />
        </mxCell>
        <mxCell id="2RlvgQEj2Rbj9FGRti8N-138" style="edgeStyle=orthogonalEdgeStyle;rounded=0;orthogonalLoop=1;jettySize=auto;html=1;entryX=0.424;entryY=-0.031;entryDx=0;entryDy=0;entryPerimeter=0;" edge="1" parent="1" source="2RlvgQEj2Rbj9FGRti8N-135" target="2RlvgQEj2Rbj9FGRti8N-137">
          <mxGeometry relative="1" as="geometry" />
        </mxCell>
        <mxCell id="2RlvgQEj2Rbj9FGRti8N-139" style="edgeStyle=orthogonalEdgeStyle;rounded=0;orthogonalLoop=1;jettySize=auto;html=1;entryX=0.406;entryY=0.2;entryDx=0;entryDy=0;entryPerimeter=0;exitX=0.589;exitY=0.976;exitDx=0;exitDy=0;exitPerimeter=0;" edge="1" parent="1">
          <mxGeometry relative="1" as="geometry">
            <mxPoint x="539.4344699999999" y="1262.2799999999997" as="sourcePoint" />
            <mxPoint x="538.5799999999999" y="1319" as="targetPoint" />
          </mxGeometry>
        </mxCell>
        <mxCell id="2RlvgQEj2Rbj9FGRti8N-140" value="Yes" style="text;html=1;align=center;verticalAlign=middle;resizable=0;points=[];autosize=1;strokeColor=none;fillColor=none;" vertex="1" parent="1">
          <mxGeometry x="751.25" y="1172" width="40" height="30" as="geometry" />
        </mxCell>
        <mxCell id="2RlvgQEj2Rbj9FGRti8N-141" value="" style="edgeStyle=orthogonalEdgeStyle;rounded=0;orthogonalLoop=1;jettySize=auto;html=1;" edge="1" parent="1">
          <mxGeometry relative="1" as="geometry">
            <mxPoint x="538.25" y="660" as="sourcePoint" />
            <mxPoint x="539" y="710" as="targetPoint" />
          </mxGeometry>
        </mxCell>
        <mxCell id="2RlvgQEj2Rbj9FGRti8N-143" value="No" style="text;html=1;align=center;verticalAlign=middle;resizable=0;points=[];autosize=1;strokeColor=none;fillColor=none;" vertex="1" parent="1">
          <mxGeometry x="139" y="474.5" width="40" height="30" as="geometry" />
        </mxCell>
      </root>
    </mxGraphModel>
  </diagram>
</mxfile>
